<?xml version="1.0" standalone="no"?><!-- Generator: Gravit.io --><svg xmlns="http://www.w3.org/2000/svg" xmlns:xlink="http://www.w3.org/1999/xlink" style="isolation:isolate" viewBox="0 0 24 24" width="24" height="24"><defs><clipPath id="_clipPath_OF6Z6HuA44OpIPbdxbJAMfQvEL9uglco"><rect width="24" height="24"/></clipPath></defs><g clip-path="url(#_clipPath_OF6Z6HuA44OpIPbdxbJAMfQvEL9uglco)"><clipPath id="_clipPath_rnW2Sl4EFIYy6lEA9qtVJXhXyqTC2MjZ"><rect x="3" y="4" width="18" height="16" transform="matrix(1,0,0,1,0,0)" fill="rgb(255,255,255)"/></clipPath><g clip-path="url(#_clipPath_rnW2Sl4EFIYy6lEA9qtVJXhXyqTC2MjZ)"><g><path d=" M 16.125 10.797 L 16.125 6.871 L 11.975 4.667 L 7.875 6.848 L 7.875 10.819 L 3.75 12.789 L 3.75 17.199 L 7.969 19.333 L 12 17.26 L 16.031 19.333 L 20.25 17.199 L 20.25 12.813 L 16.125 10.797 Z  M 15.339 10.819 L 12.368 12.275 L 12.368 9.247 L 15.339 7.695 L 15.339 10.819 Z  M 11.974 5.496 L 14.911 7.083 L 11.977 8.615 L 9.106 7.055 L 11.974 5.496 Z  M 11.583 9.245 L 11.583 12.275 L 8.661 10.796 L 8.661 7.659 L 11.583 9.245 Z  M 7.574 18.315 L 4.535 16.763 L 4.535 13.6 L 7.574 15.186 L 7.574 18.315 Z  M 4.981 12.997 L 8.266 11.451 L 11.179 12.927 L 7.969 14.557 L 4.981 12.997 Z  M 8.361 15.189 L 11.608 13.541 L 11.608 16.631 L 8.361 18.315 L 8.361 15.189 Z  M 15.639 18.315 L 12.392 16.63 L 12.392 13.503 L 15.639 15.187 L 15.639 18.315 Z  M 12.838 12.899 L 15.758 11.439 L 19.037 13.024 L 16.034 14.557 L 12.838 12.899 Z  M 19.464 16.763 L 16.425 18.315 L 16.425 15.189 L 19.464 13.638 L 19.464 16.763 Z " fill="rgb(255,255,255)"/></g></g></g></svg>